<svg xmlns="http://www.w3.org/2000/svg" width="400" height="250" viewBox="0 0 400 250">
  <defs>
    <linearGradient id="bar1" x1="0%" y1="0%" x2="100%" y2="0%">
      <stop offset="0%" style="stop-color:#06b6d4"/>
      <stop offset="100%" style="stop-color:#64ffda"/>
    </linearGradient>
  </defs>
  <rect width="400" height="250" fill="#0f172a" rx="8"/>
  <!-- Header -->
  <text x="30" y="30" font-family="monospace" font-size="11" font-weight="bold" fill="#64ffda">Bundle Analyzer Report</text>
  <text x="280" y="30" font-family="monospace" font-size="9" fill="#94a3b8">Total: 248kb</text>
  <!-- Treemap-style blocks -->
  <rect x="30" y="45" width="180" height="80" fill="#164e63" rx="4" stroke="#06b6d4" stroke-width="1"/>
  <text x="75" y="80" font-family="monospace" font-size="10" fill="#06b6d4">@angular/core</text>
  <text x="95" y="95" font-family="monospace" font-size="9" fill="#94a3b8">89kb</text>
  <rect x="215" y="45" width="155" height="50" fill="#1e3a5f" rx="4" stroke="#3b82f6" stroke-width="1"/>
  <text x="255" y="72" font-family="monospace" font-size="10" fill="#3b82f6">rxjs</text>
  <text x="260" y="87" font-family="monospace" font-size="9" fill="#94a3b8">52kb</text>
  <rect x="215" y="100" width="80" height="25" fill="#1c1917" rx="4" stroke="#eab308" stroke-width="1"/>
  <text x="225" y="117" font-family="monospace" font-size="8" fill="#eab308">zone.js 18kb</text>
  <rect x="300" y="100" width="70" height="25" fill="#1e293b" rx="4" stroke="#475569" stroke-width="1"/>
  <text x="308" y="117" font-family="monospace" font-size="8" fill="#94a3b8">other 14kb</text>
  <!-- Bar chart -->
  <rect x="30" y="140" width="340" height="90" fill="#1e293b" rx="6"/>
  <text x="40" y="158" font-family="monospace" font-size="9" fill="#94a3b8">Chunk Sizes (gzipped)</text>
  <text x="40" y="178" font-family="monospace" font-size="8" fill="#94a3b8">main</text>
  <rect x="85" y="170" width="180" height="12" fill="url(#bar1)" rx="2"/>
  <text x="270" y="180" font-family="monospace" font-size="8" fill="#64ffda">48kb</text>
  <text x="40" y="198" font-family="monospace" font-size="8" fill="#94a3b8">vendor</text>
  <rect x="85" y="190" width="120" height="12" fill="#3b82f6" rx="2" opacity="0.7"/>
  <text x="210" y="200" font-family="monospace" font-size="8" fill="#3b82f6">31kb</text>
  <text x="40" y="218" font-family="monospace" font-size="8" fill="#94a3b8">styles</text>
  <rect x="85" y="210" width="60" height="12" fill="#eab308" rx="2" opacity="0.7"/>
  <text x="150" y="220" font-family="monospace" font-size="8" fill="#eab308">12kb</text>
</svg>
