<svg xmlns="http://www.w3.org/2000/svg" width="400" height="250" viewBox="0 0 400 250">
  <defs>
    <linearGradient id="bg4" x1="0%" y1="0%" x2="100%" y2="100%">
      <stop offset="0%" style="stop-color:#0f172a"/>
      <stop offset="100%" style="stop-color:#1e293b"/>
    </linearGradient>
    <linearGradient id="perf" x1="0%" y1="0%" x2="100%" y2="0%">
      <stop offset="0%" style="stop-color:#06b6d4"/>
      <stop offset="100%" style="stop-color:#64ffda"/>
    </linearGradient>
  </defs>
  <rect width="400" height="250" fill="url(#bg4)" rx="8"/>
  <!-- Gauge -->
  <circle cx="100" cy="120" r="60" fill="none" stroke="#1e293b" stroke-width="12"/>
  <circle cx="100" cy="120" r="60" fill="none" stroke="url(#perf)" stroke-width="12" stroke-dasharray="280 100" stroke-linecap="round" transform="rotate(-90 100 120)"/>
  <text x="82" y="127" font-family="monospace" font-size="18" font-weight="bold" fill="#64ffda">98</text>
  <text x="78" y="143" font-family="monospace" font-size="9" fill="#94a3b8">Score</text>
  <!-- Metrics -->
  <rect x="200" y="40" width="180" height="35" fill="#1e293b" rx="6"/>
  <text x="215" y="55" font-family="monospace" font-size="9" fill="#94a3b8">FCP</text>
  <text x="215" y="68" font-family="monospace" font-size="11" fill="#64ffda">0.8s</text>
  <rect x="330" y="48" width="40" height="14" fill="#064e3b" rx="3"/>
  <text x="338" y="58" font-family="monospace" font-size="8" fill="#64ffda">GOOD</text>
  <rect x="200" y="85" width="180" height="35" fill="#1e293b" rx="6"/>
  <text x="215" y="100" font-family="monospace" font-size="9" fill="#94a3b8">LCP</text>
  <text x="215" y="113" font-family="monospace" font-size="11" fill="#64ffda">1.2s</text>
  <rect x="330" y="93" width="40" height="14" fill="#064e3b" rx="3"/>
  <text x="338" y="103" font-family="monospace" font-size="8" fill="#64ffda">GOOD</text>
  <rect x="200" y="130" width="180" height="35" fill="#1e293b" rx="6"/>
  <text x="215" y="145" font-family="monospace" font-size="9" fill="#94a3b8">CLS</text>
  <text x="215" y="158" font-family="monospace" font-size="11" fill="#64ffda">0.01</text>
  <rect x="330" y="138" width="40" height="14" fill="#064e3b" rx="3"/>
  <text x="338" y="148" font-family="monospace" font-size="8" fill="#64ffda">GOOD</text>
  <rect x="200" y="175" width="180" height="35" fill="#1e293b" rx="6"/>
  <text x="215" y="190" font-family="monospace" font-size="9" fill="#94a3b8">TTI</text>
  <text x="215" y="203" font-family="monospace" font-size="11" fill="#eab308">2.1s</text>
  <rect x="330" y="183" width="40" height="14" fill="#422006" rx="3"/>
  <text x="337" y="193" font-family="monospace" font-size="8" fill="#eab308">AVG</text>
  <!-- Bottom bar -->
  <rect x="20" y="220" width="360" height="15" fill="#1e293b" rx="3"/>
  <rect x="20" y="220" width="260" height="15" fill="url(#perf)" rx="3" opacity="0.3"/>
  <text x="30" y="231" font-family="monospace" font-size="8" fill="#e2e8f0">Bundle: 142kb gzipped</text>
</svg>
